<?xml version="1.0" encoding="UTF-8" standalone="no"?><!DOCTYPE svg PUBLIC "-//W3C//DTD SVG 1.1//EN" "http://www.w3.org/Graphics/SVG/1.1/DTD/svg11.dtd"><svg width="100%" height="100%" viewBox="0 0 512 512" version="1.1" xmlns="http://www.w3.org/2000/svg" xmlns:xlink="http://www.w3.org/1999/xlink" xml:space="preserve" style="fill-rule:evenodd;clip-rule:evenodd;stroke-linejoin:round;stroke-miterlimit:1.41421;"><g id="Icon"><rect x="0" y="0" width="512" height="512" style="fill:#ecf0f1;"/><rect x="0" y="0" width="512" height="105.931" style="fill:#546a79;"/><circle cx="52.966" cy="52.966" r="26.483" style="fill:#ed7161;"/><circle cx="132.414" cy="52.966" r="26.483" style="fill:#f0c419;"/><circle cx="211.862" cy="52.966" r="26.483" style="fill:#4fba6f;"/><rect x="0" y="105.931" width="512" height="211.862" style="fill:#ff8700;"/><path d="M432.552,256c-2.26,0 -4.52,-0.865 -6.241,-2.586c-3.452,-3.452 -3.452,-9.031 0,-12.483l29.069,-29.069l-29.069,-29.069c-3.452,-3.452 -3.452,-9.031 0,-12.482c3.451,-3.452 9.03,-3.452 12.482,0l32.724,32.723c4.873,4.864 4.873,12.792 0,17.656l-32.724,32.724c-1.722,1.721 -3.981,2.586 -6.241,2.586Z" style="fill:#fff;fill-rule:nonzero;"/><path d="M77.939,256c-2.26,0 -4.52,-0.865 -6.241,-2.586l-32.733,-32.724c-4.864,-4.882 -4.864,-12.792 0,-17.656l32.733,-32.732c3.451,-3.452 9.03,-3.452 12.482,0c3.451,3.451 3.451,9.03 0,12.482l-29.069,29.078l29.069,29.069c3.451,3.452 3.451,9.031 0,12.483c-1.73,1.721 -3.99,2.586 -6.241,2.586Z" style="fill:#fff;fill-rule:nonzero;"/><circle cx="97.103" cy="414.897" r="52.966" style="fill:#bdc3c7;"/><circle cx="256" cy="414.897" r="52.966" style="fill:#bdc3c7;"/><circle cx="414.897" cy="414.897" r="52.966" style="fill:#bdc3c7;"/></g></svg>