<?xml version="1.0" encoding="UTF-8" standalone="no"?><!DOCTYPE svg PUBLIC "-//W3C//DTD SVG 1.1//EN" "http://www.w3.org/Graphics/SVG/1.1/DTD/svg11.dtd"><svg width="100%" height="100%" viewBox="0 0 512 512" version="1.1" xmlns="http://www.w3.org/2000/svg" xmlns:xlink="http://www.w3.org/1999/xlink" xml:space="preserve" style="fill-rule:evenodd;clip-rule:evenodd;stroke-linejoin:round;stroke-miterlimit:1.41421;"><g id="Icon"><rect x="8.828" y="61.793" width="494.345" height="388.414" style="fill:#ff8700;"/><path d="M512,52.966l0,406.068l-512,0l0,-406.068l512,0Zm-494.345,388.413l476.69,0l0,-370.758l-476.69,0l0,370.758Z" style="fill:#e7eced;"/><circle cx="141.241" cy="155.092" r="57.988" style="fill:#fff;"/><path d="M494.345,318.773l-8.828,-9.807l-105.931,-97.104l-92.689,101.517l83.862,83.862l123.586,0l0,-78.468Z" style="fill:#1a9172;fill-rule:nonzero;"/><path d="M17.655,432.552l211.862,0l-35.46,-35.461l-96.803,-96.803l-79.599,70.082l0,62.182Z" style="fill:#1a9172;fill-rule:nonzero;"/><rect x="17.655" y="397.241" width="476.69" height="44.138" style="fill:#6b5b4b;"/><path d="M335.298,361.781l-96.803,-96.803l-150.219,132.263l282.483,0l-35.461,-35.46Z" style="fill:#25ae88;fill-rule:nonzero;"/></g></svg>